<svg width="48" height="48" viewBox="0 0 48 48" fill="none" xmlns="http://www.w3.org/2000/svg">
<path d="M16.9209 44.2891C18.2577 44.2891 19.3414 42.7577 19.3414 40.8688C19.3414 38.9798 18.2577 37.4485 16.9209 37.4485C15.5842 37.4485 14.5005 38.9798 14.5005 40.8688C14.5005 42.7577 15.5842 44.2891 16.9209 44.2891Z" stroke="#B8B8B8" stroke-width="0.3" stroke-miterlimit="10"/>
<path d="M16.9209 38.9509L17.8687 39.506L18.2613 40.8453L17.8687 42.185L16.9209 42.7397L15.9729 42.185L15.5803 40.8453L15.9729 39.506L16.9209 38.9509Z" stroke="#B8B8B8" stroke-width="0.3" stroke-miterlimit="10"/>
<path d="M18.6298 41.8374V43.2863H17.6428" stroke="#B8B8B8" stroke-width="0.3" stroke-miterlimit="10" stroke-linejoin="bevel"/>
<path d="M17.6157 38.4497H18.6299V39.8432" stroke="#B8B8B8" stroke-width="0.3" stroke-miterlimit="10" stroke-linejoin="bevel"/>
<path d="M15.2083 39.8831V38.4497H16.1981" stroke="#B8B8B8" stroke-width="0.3" stroke-miterlimit="10" stroke-linejoin="bevel"/>
<path d="M16.2333 43.2859H15.2083V41.8838" stroke="#B8B8B8" stroke-width="0.3" stroke-miterlimit="10" stroke-linejoin="bevel"/>
<path d="M17.869 44.0165L17.6435 43.2842L16.9212 44.2888L16.2267 43.2897L15.9731 44.0165" stroke="#B8B8B8" stroke-width="0.3" stroke-miterlimit="10" stroke-linejoin="bevel"/>
<path d="M15.9731 37.7207L16.1987 38.4531L16.9212 37.4485L17.6154 38.4472L17.869 37.7207" stroke="#B8B8B8" stroke-width="0.3" stroke-miterlimit="10" stroke-linejoin="bevel"/>
<path d="M14.6934 42.2063L15.2114 41.8877L14.5005 40.8667L15.2075 39.8856L14.6932 39.5273" stroke="#B8B8B8" stroke-width="0.3" stroke-miterlimit="10" stroke-linejoin="bevel"/>
<path d="M19.1484 39.5273L18.6301 39.846L19.341 40.8667L18.6343 41.8481L19.1484 42.2063" stroke="#B8B8B8" stroke-width="0.3" stroke-miterlimit="10" stroke-linejoin="bevel"/>
<path d="M16.1984 38.4529L15.9729 39.5061L15.2073 39.8857L15.5804 40.8454L15.2112 41.8877L15.9729 42.185L16.2265 43.2899L16.921 42.7398L17.6433 43.2843L17.8688 42.185L18.6351 41.8481L18.2613 40.8454L18.6309 39.8461L17.8688 39.5061L17.6152 38.447L16.921 38.951L16.1984 38.4529Z" stroke="#B8B8B8" stroke-width="0.3" stroke-miterlimit="10"/>
<path d="M23.92 44.2891C25.809 44.2891 27.3403 42.7577 27.3403 40.8688C27.3403 38.9798 25.809 37.4485 23.92 37.4485C22.0311 37.4485 20.4998 38.9798 20.4998 40.8688C20.4998 42.7577 22.0311 44.2891 23.92 44.2891Z" stroke="#B8B8B8" stroke-width="0.3" stroke-miterlimit="10"/>
<path d="M23.9205 38.9509L25.2598 39.506L25.8146 40.8453L25.2598 42.185L23.9205 42.7397L22.5809 42.185L22.0261 40.8453L22.5809 39.506L23.9205 38.9509Z" stroke="#B8B8B8" stroke-width="0.3" stroke-miterlimit="10"/>
<path d="M26.3364 41.8374V43.2863H24.9417" stroke="#B8B8B8" stroke-width="0.3" stroke-miterlimit="10" stroke-linejoin="bevel"/>
<path d="M24.9043 38.4497H26.3374V39.8432" stroke="#B8B8B8" stroke-width="0.3" stroke-miterlimit="10" stroke-linejoin="bevel"/>
<path d="M21.5012 39.8831V38.4497H22.9" stroke="#B8B8B8" stroke-width="0.3" stroke-miterlimit="10" stroke-linejoin="bevel"/>
<path d="M22.9498 43.2859H21.5012V41.8838" stroke="#B8B8B8" stroke-width="0.3" stroke-miterlimit="10" stroke-linejoin="bevel"/>
<path d="M25.26 44.0165L24.9414 43.2842L23.9207 44.2888L22.9393 43.2897L22.5811 44.0165" stroke="#B8B8B8" stroke-width="0.3" stroke-miterlimit="10" stroke-linejoin="bevel"/>
<path d="M22.5811 37.7207L22.8997 38.4531L23.9207 37.4485L24.9018 38.4472L25.26 37.7207" stroke="#B8B8B8" stroke-width="0.3" stroke-miterlimit="10" stroke-linejoin="bevel"/>
<path d="M20.7721 42.2063L21.5041 41.8877L20.4995 40.8667L21.4985 39.8856L20.7718 39.5273" stroke="#B8B8B8" stroke-width="0.3" stroke-miterlimit="10" stroke-linejoin="bevel"/>
<path d="M27.0692 39.5273L26.3369 39.846L27.3415 40.8667L26.3428 41.8481L27.0692 42.2063" stroke="#B8B8B8" stroke-width="0.3" stroke-miterlimit="10" stroke-linejoin="bevel"/>
<path d="M22.9001 38.4529L22.5814 39.5061L21.4995 39.8857L22.0267 40.8454L21.5051 41.8877L22.5814 42.185L22.9397 43.2899L23.9211 42.7398L24.9418 43.2843L25.2604 42.185L26.3433 41.8481L25.8152 40.8454L26.3374 39.8461L25.2604 39.5061L24.9022 38.447L23.9211 38.951L22.9001 38.4529Z" stroke="#B8B8B8" stroke-width="0.3" stroke-miterlimit="10"/>
<path d="M30.9995 44.2891C32.38 44.2891 33.4991 42.7577 33.4991 40.8688C33.4991 38.9798 32.38 37.4485 30.9995 37.4485C29.6189 37.4485 28.4998 38.9798 28.4998 40.8688C28.4998 42.7577 29.6189 44.2891 30.9995 44.2891Z" stroke="#B8B8B8" stroke-width="0.3" stroke-miterlimit="10"/>
<path d="M31 38.9509L31.9788 39.506L32.3843 40.8453L31.9788 42.185L31 42.7397L30.0209 42.185L29.6155 40.8453L30.0209 39.506L31 38.9509Z" stroke="#B8B8B8" stroke-width="0.3" stroke-miterlimit="10"/>
<path d="M32.7664 41.8374V43.2863H31.7471" stroke="#B8B8B8" stroke-width="0.3" stroke-miterlimit="10" stroke-linejoin="bevel"/>
<path d="M31.719 38.4497H32.7664V39.8432" stroke="#B8B8B8" stroke-width="0.3" stroke-miterlimit="10" stroke-linejoin="bevel"/>
<path d="M29.2314 39.8831V38.4497H30.2537" stroke="#B8B8B8" stroke-width="0.3" stroke-miterlimit="10" stroke-linejoin="bevel"/>
<path d="M30.2901 43.2859H29.2314V41.8838" stroke="#B8B8B8" stroke-width="0.3" stroke-miterlimit="10" stroke-linejoin="bevel"/>
<path d="M31.9794 44.0165L31.7465 43.2842L31.0006 44.2888L30.2833 43.2897L30.0215 44.0165" stroke="#B8B8B8" stroke-width="0.3" stroke-miterlimit="10" stroke-linejoin="bevel"/>
<path d="M30.0215 37.7207L30.2544 38.4531L31.0006 37.4485L31.7176 38.4472L31.9794 37.7207" stroke="#B8B8B8" stroke-width="0.3" stroke-miterlimit="10" stroke-linejoin="bevel"/>
<path d="M28.6992 42.2063L29.2342 41.8877L28.5 40.8667L29.2301 39.8856L28.699 39.5273" stroke="#B8B8B8" stroke-width="0.3" stroke-miterlimit="10" stroke-linejoin="bevel"/>
<path d="M33.3008 39.5273L32.7656 39.846L33.4998 40.8667L32.7699 41.8481L33.3008 42.2063" stroke="#B8B8B8" stroke-width="0.3" stroke-miterlimit="10" stroke-linejoin="bevel"/>
<path d="M30.2541 38.4529L30.0212 39.5061L29.2305 39.8857L29.6158 40.8454L29.2345 41.8877L30.0212 42.185L30.283 43.2899L31.0003 42.7398L31.7462 43.2843L31.9791 42.185L32.7705 41.8481L32.3845 40.8454L32.7662 39.8461L31.9791 39.5061L31.7173 38.447L31.0003 38.951L30.2541 38.4529Z" stroke="#B8B8B8" stroke-width="0.3" stroke-miterlimit="10"/>
<circle cx="19.0002" cy="37.9482" r="0.85" fill="white" stroke="#B8B8B8" stroke-width="0.3"/>
<circle cx="21.0005" cy="37.9482" r="0.85" fill="white" stroke="#B8B8B8" stroke-width="0.3"/>
<circle cx="19.0002" cy="43.9482" r="0.85" fill="white" stroke="#B8B8B8" stroke-width="0.3"/>
<circle cx="21.0005" cy="43.9482" r="0.85" fill="white" stroke="#B8B8B8" stroke-width="0.3"/>
<circle cx="27" cy="43.9482" r="0.85" fill="white" stroke="#B8B8B8" stroke-width="0.3"/>
<circle cx="29" cy="43.9482" r="0.85" fill="white" stroke="#B8B8B8" stroke-width="0.3"/>
<circle cx="29" cy="37.9482" r="0.85" fill="white" stroke="#B8B8B8" stroke-width="0.3"/>
<circle cx="27" cy="37.9482" r="0.85" fill="white" stroke="#B8B8B8" stroke-width="0.3"/>
<rect x="14.25" y="37.1982" width="19.5" height="7.5" rx="2.75" stroke="#B8B8B8" stroke-width="0.5"/>
<path d="M38.4475 26.2036L8.55363 26.2036" stroke="#B8B8B8" stroke-width="0.5" stroke-miterlimit="10" stroke-linejoin="bevel"/>
<path d="M8.55363 14.7869L38.4475 14.7869" stroke="#B8B8B8" stroke-width="0.5" stroke-miterlimit="10" stroke-linejoin="bevel"/>
<path d="M6.00029 20.496C6.00029 26.5629 13.8352 31.481 23.5001 31.481C33.165 31.481 41 26.5629 41 20.496C41 14.4291 33.165 9.51099 23.5001 9.51099C13.8352 9.51099 6.00029 14.4291 6.00029 20.496Z" stroke="#B8B8B8" stroke-width="0.5" stroke-miterlimit="10" stroke-linejoin="bevel"/>
<path d="M23.5005 9.51099L23.5005 11.4927" stroke="#B8B8B8" stroke-width="0.5" stroke-miterlimit="10" stroke-linejoin="bevel"/>
<path d="M38.4544 14.7869L36.4127 20.4961L41 20.4961" stroke="#B8B8B8" stroke-width="0.5" stroke-miterlimit="10" stroke-linejoin="bevel"/>
<path d="M38.4475 26.2127L36.4131 20.4961L33.0077 22.3636L33.0077 18.6272L36.4131 20.4961" stroke="#B8B8B8" stroke-width="0.5" stroke-miterlimit="10" stroke-linejoin="bevel"/>
<path d="M23.5002 31.4813L23.5002 29.4982L29.2666 30.8706L32.4478 26.2041L33.0073 22.3638L27.6261 26.2041L23.5002 29.4982L17.7352 30.8706L14.5525 26.2041L13.4701 29.4982" stroke="#B8B8B8" stroke-width="0.5" stroke-miterlimit="10" stroke-linejoin="bevel"/>
<path d="M23.5005 29.4979L19.3745 26.2039L13.9933 22.3635L10.588 20.4961L6.00064 20.4961" stroke="#B8B8B8" stroke-width="0.5" stroke-miterlimit="10" stroke-linejoin="bevel"/>
<path d="M13.4701 11.4927L14.5525 14.7867L13.993 18.6271L10.5876 20.496L8.55321 14.7794" stroke="#B8B8B8" stroke-width="0.5" stroke-miterlimit="10" stroke-linejoin="bevel"/>
<path d="M32.4478 14.7868L29.2123 10.1174L23.5001 11.4928L17.741 10.1174L14.5524 14.7868" stroke="#B8B8B8" stroke-width="0.5" stroke-miterlimit="10" stroke-linejoin="bevel"/>
<path d="M10.5879 20.4961L8.55347 26.2127" stroke="#B8B8B8" stroke-width="0.5" stroke-miterlimit="10" stroke-linejoin="bevel"/>
<path d="M32.4479 26.2036L33.5303 29.4977" stroke="#B8B8B8" stroke-width="0.5" stroke-miterlimit="10" stroke-linejoin="bevel"/>
<path d="M14.5526 26.2038L13.9931 22.3634L13.9931 18.6271L19.3303 14.7867L23.5002 11.4927L27.6262 14.7867L33.0074 18.6271L32.4479 14.7867L33.5303 11.4927" stroke="#B8B8B8" stroke-width="0.5" stroke-miterlimit="10" stroke-linejoin="bevel"/>
<circle cx="34.2347" cy="10.5896" r="2.85649" fill="white" stroke="#B8B8B8" stroke-width="0.5"/>
<circle cx="34.2347" cy="30.3333" r="2.85649" fill="white" stroke="#B8B8B8" stroke-width="0.5"/>
<circle cx="12.6963" cy="30.3333" r="2.85649" fill="white" stroke="#B8B8B8" stroke-width="0.5"/>
<circle cx="12.6963" cy="10.5896" r="2.85649" fill="white" stroke="#B8B8B8" stroke-width="0.5"/>
</svg>
