<svg width="48" height="48" viewBox="0 0 48 48" fill="none" xmlns="http://www.w3.org/2000/svg">
<path d="M24.0001 45.6692C26.1519 45.6692 27.8962 43.9248 27.8962 41.773C27.8962 39.6211 26.1519 37.8767 24.0001 37.8767C21.8484 37.8767 20.104 39.6211 20.104 41.773C20.104 43.9248 21.8484 45.6692 24.0001 45.6692Z" stroke="#B8B8B8" stroke-width="0.3" stroke-miterlimit="10"/>
<path d="M24.0005 39.5881L25.5261 40.2204L26.158 41.7461L25.5261 43.2722L24.0005 43.9041L22.4744 43.2722L21.8425 41.7461L22.4744 40.2204L24.0005 39.5881Z" stroke="#B8B8B8" stroke-width="0.3" stroke-miterlimit="10"/>
<path d="M26.7518 42.8765V44.527H25.1631" stroke="#B8B8B8" stroke-width="0.3" stroke-miterlimit="10" stroke-linejoin="bevel"/>
<path d="M25.1206 39.0178H26.7531V40.6052" stroke="#B8B8B8" stroke-width="0.3" stroke-miterlimit="10" stroke-linejoin="bevel"/>
<path d="M21.2439 40.6507V39.0178H22.8372" stroke="#B8B8B8" stroke-width="0.3" stroke-miterlimit="10" stroke-linejoin="bevel"/>
<path d="M22.894 44.5265H21.2439V42.9292" stroke="#B8B8B8" stroke-width="0.3" stroke-miterlimit="10" stroke-linejoin="bevel"/>
<path d="M25.5265 45.3591L25.1635 44.5249L24.0009 45.6693L22.883 44.5312L22.4749 45.3591" stroke="#B8B8B8" stroke-width="0.3" stroke-miterlimit="10" stroke-linejoin="bevel"/>
<path d="M22.4749 38.1869L22.8379 39.0211L24.0009 37.8767L25.1184 39.0144L25.5265 38.1869" stroke="#B8B8B8" stroke-width="0.3" stroke-miterlimit="10" stroke-linejoin="bevel"/>
<path d="M20.4145 43.2967L21.2483 42.9337L20.104 41.7706L21.242 40.653L20.4141 40.2449" stroke="#B8B8B8" stroke-width="0.3" stroke-miterlimit="10" stroke-linejoin="bevel"/>
<path d="M27.5876 40.2449L26.7534 40.6079L27.8978 41.7706L26.7601 42.8885L27.5876 43.2967" stroke="#B8B8B8" stroke-width="0.3" stroke-miterlimit="10" stroke-linejoin="bevel"/>
<path d="M22.8379 39.0218L22.4749 40.2215L21.2424 40.654L21.843 41.7473L21.2488 42.9347L22.4749 43.2734L22.883 44.5319L24.0009 43.9053L25.1636 44.5256L25.5266 43.2734L26.7601 42.8895L26.1585 41.7473L26.7534 40.6089L25.5266 40.2215L25.1185 39.0151L24.0009 39.5893L22.8379 39.0218Z" stroke="#B8B8B8" stroke-width="0.3" stroke-miterlimit="10"/>
<rect x="18.7954" y="36.5681" width="10.4093" height="10.4093" rx="5.20464" stroke="#B8B8B8" stroke-width="0.5"/>
<path d="M41.864 27.5083L5.13719 27.5083" stroke="#B8B8B8" stroke-width="0.5" stroke-miterlimit="10" stroke-linejoin="bevel"/>
<path d="M5.13719 13.4819L41.864 13.4819" stroke="#B8B8B8" stroke-width="0.5" stroke-miterlimit="10" stroke-linejoin="bevel"/>
<path d="M2.00029 20.4959C2.00029 27.9495 11.6261 33.9918 23.5001 33.9918C35.3742 33.9918 45 27.9495 45 20.4959C45 13.0423 35.3742 7 23.5001 7C11.6261 7 2.00029 13.0423 2.00029 20.4959Z" stroke="#B8B8B8" stroke-width="0.5" stroke-miterlimit="10" stroke-linejoin="bevel"/>
<path d="M23.5005 7L23.5005 9.43466" stroke="#B8B8B8" stroke-width="0.5" stroke-miterlimit="10" stroke-linejoin="bevel"/>
<path d="M41.8726 13.4819L39.3641 20.4962L45 20.4962" stroke="#B8B8B8" stroke-width="0.5" stroke-miterlimit="10" stroke-linejoin="bevel"/>
<path d="M41.864 27.5193L39.3646 20.4961L35.1808 22.7904L35.1808 18.2L39.3646 20.4961" stroke="#B8B8B8" stroke-width="0.5" stroke-miterlimit="10" stroke-linejoin="bevel"/>
<path d="M23.5002 33.9924L23.5002 31.5559L30.5846 33.242L34.493 27.5089L35.1804 22.7908L28.5692 27.5089L23.5002 31.5559L16.4175 33.242L12.5073 27.5089L11.1775 31.5559" stroke="#B8B8B8" stroke-width="0.5" stroke-miterlimit="10" stroke-linejoin="bevel"/>
<path d="M23.5005 31.5555L18.4314 27.5086L11.8202 22.7904L7.63652 20.4961L2.00064 20.4961" stroke="#B8B8B8" stroke-width="0.5" stroke-miterlimit="10" stroke-linejoin="bevel"/>
<path d="M11.1775 9.43481L12.5073 13.4818L11.8199 18.1999L7.6362 20.496L5.13677 13.4728" stroke="#B8B8B8" stroke-width="0.5" stroke-miterlimit="10" stroke-linejoin="bevel"/>
<path d="M34.4929 13.4818L30.5179 7.74512L23.5001 9.4348L16.4246 7.74512L12.5072 13.4818" stroke="#B8B8B8" stroke-width="0.5" stroke-miterlimit="10" stroke-linejoin="bevel"/>
<path d="M7.63647 20.4961L5.13704 27.5194" stroke="#B8B8B8" stroke-width="0.5" stroke-miterlimit="10" stroke-linejoin="bevel"/>
<path d="M34.4932 27.5083L35.823 31.5553" stroke="#B8B8B8" stroke-width="0.5" stroke-miterlimit="10" stroke-linejoin="bevel"/>
<path d="M12.5075 27.5085L11.8201 22.7903L11.8201 18.1999L18.3773 13.4818L23.5003 9.43481L28.5694 13.4818L35.1806 18.1999L34.4932 13.4818L35.823 9.43481" stroke="#B8B8B8" stroke-width="0.5" stroke-miterlimit="10" stroke-linejoin="bevel"/>
<circle cx="36.2347" cy="7.58965" r="2.85649" fill="white" stroke="#B8B8B8" stroke-width="0.5"/>
<circle cx="36.2347" cy="32.3333" r="2.85649" fill="white" stroke="#B8B8B8" stroke-width="0.5"/>
<circle cx="10.6963" cy="32.3333" r="2.85649" fill="white" stroke="#B8B8B8" stroke-width="0.5"/>
<circle cx="10.6963" cy="7.58965" r="2.85649" fill="white" stroke="#B8B8B8" stroke-width="0.5"/>
</svg>
