<svg width="48" height="48" viewBox="0 0 48 48" fill="none" xmlns="http://www.w3.org/2000/svg">
<rect x="34.5227" y="36.9768" width="2.22729" height="7.00004" rx="1.11364" stroke="#B8B8B8" stroke-width="0.5"/>
<rect x="10.2502" y="36.9768" width="2.22729" height="7.00004" rx="1.11364" stroke="#B8B8B8" stroke-width="0.5"/>
<path d="M23.9687 43.7338C25.7718 43.7338 27.2335 42.2721 27.2335 40.4689C27.2335 38.6658 25.7718 37.2041 23.9687 37.2041C22.1656 37.2041 20.7039 38.6658 20.7039 40.4689C20.7039 42.2721 22.1656 43.7338 23.9687 43.7338Z" stroke="#B8B8B8" stroke-width="0.3" stroke-miterlimit="10"/>
<path d="M23.9687 38.6384L25.2472 39.1682L25.7767 40.4467L25.2472 41.7255L23.9687 42.255L22.6899 41.7255L22.1604 40.4467L22.6899 39.1682L23.9687 38.6384Z" stroke="#B8B8B8" stroke-width="0.3" stroke-miterlimit="10"/>
<path d="M26.2749 41.3936V42.7766H24.9436" stroke="#B8B8B8" stroke-width="0.3" stroke-miterlimit="10" stroke-linejoin="bevel"/>
<path d="M24.9077 38.1599H26.2757V39.4901" stroke="#B8B8B8" stroke-width="0.3" stroke-miterlimit="10" stroke-linejoin="bevel"/>
<path d="M21.6592 39.5282V38.1599H22.9944" stroke="#B8B8B8" stroke-width="0.3" stroke-miterlimit="10" stroke-linejoin="bevel"/>
<path d="M23.0419 42.7764H21.6592V41.438" stroke="#B8B8B8" stroke-width="0.3" stroke-miterlimit="10" stroke-linejoin="bevel"/>
<path d="M25.2477 43.4737L24.9435 42.7747L23.9692 43.7336L23.0324 42.78L22.6904 43.4737" stroke="#B8B8B8" stroke-width="0.3" stroke-miterlimit="10" stroke-linejoin="bevel"/>
<path d="M22.6904 37.464L22.9946 38.163L23.9692 37.2041L24.9057 38.1574L25.2477 37.464" stroke="#B8B8B8" stroke-width="0.3" stroke-miterlimit="10" stroke-linejoin="bevel"/>
<path d="M20.9638 41.746L21.6625 41.4418L20.7036 40.4672L21.6572 39.5307L20.9635 39.1887" stroke="#B8B8B8" stroke-width="0.3" stroke-miterlimit="10" stroke-linejoin="bevel"/>
<path d="M26.9744 39.1887L26.2754 39.4929L27.2343 40.4672L26.281 41.404L26.9744 41.746" stroke="#B8B8B8" stroke-width="0.3" stroke-miterlimit="10" stroke-linejoin="bevel"/>
<path d="M22.9947 38.1633L22.6905 39.1686L21.6577 39.531L22.161 40.4471L21.663 41.442L22.6905 41.7259L23.0325 42.7805L23.9692 42.2554L24.9435 42.7751L25.2477 41.7259L26.2813 41.4042L25.7772 40.4471L26.2757 39.4932L25.2477 39.1686L24.9057 38.1577L23.9692 38.6388L22.9947 38.1633Z" stroke="#B8B8B8" stroke-width="0.3" stroke-miterlimit="10"/>
<path d="M30.7866 43.7338C32.5897 43.7338 34.0514 42.2721 34.0514 40.4689C34.0514 38.6658 32.5897 37.2041 30.7866 37.2041C28.9834 37.2041 27.5217 38.6658 27.5217 40.4689C27.5217 42.2721 28.9834 43.7338 30.7866 43.7338Z" stroke="#B8B8B8" stroke-width="0.3" stroke-miterlimit="10"/>
<path d="M30.7868 38.6384L32.0653 39.1682L32.5948 40.4467L32.0653 41.7255L30.7868 42.255L29.508 41.7255L28.9785 40.4467L29.508 39.1682L30.7868 38.6384Z" stroke="#B8B8B8" stroke-width="0.3" stroke-miterlimit="10"/>
<path d="M33.0931 41.3936V42.7766H31.7617" stroke="#B8B8B8" stroke-width="0.3" stroke-miterlimit="10" stroke-linejoin="bevel"/>
<path d="M31.7256 38.1599H33.0935V39.4901" stroke="#B8B8B8" stroke-width="0.3" stroke-miterlimit="10" stroke-linejoin="bevel"/>
<path d="M28.4771 39.5282V38.1599H29.8122" stroke="#B8B8B8" stroke-width="0.3" stroke-miterlimit="10" stroke-linejoin="bevel"/>
<path d="M29.8598 42.7764H28.4771V41.438" stroke="#B8B8B8" stroke-width="0.3" stroke-miterlimit="10" stroke-linejoin="bevel"/>
<path d="M32.0658 43.4737L31.7616 42.7747L30.7873 43.7336L29.8505 42.78L29.5085 43.4737" stroke="#B8B8B8" stroke-width="0.3" stroke-miterlimit="10" stroke-linejoin="bevel"/>
<path d="M29.5085 37.464L29.8127 38.163L30.7873 37.2041L31.7238 38.1574L32.0658 37.464" stroke="#B8B8B8" stroke-width="0.3" stroke-miterlimit="10" stroke-linejoin="bevel"/>
<path d="M27.7817 41.746L28.4804 41.4418L27.5215 40.4672L28.4751 39.5307L27.7814 39.1887" stroke="#B8B8B8" stroke-width="0.3" stroke-miterlimit="10" stroke-linejoin="bevel"/>
<path d="M33.7923 39.1887L33.0933 39.4929L34.0522 40.4672L33.0989 41.404L33.7923 41.746" stroke="#B8B8B8" stroke-width="0.3" stroke-miterlimit="10" stroke-linejoin="bevel"/>
<path d="M29.8128 38.1633L29.5086 39.1686L28.4758 39.531L28.9791 40.4471L28.4811 41.442L29.5086 41.7259L29.8506 42.7805L30.7874 42.2554L31.7616 42.7751L32.0658 41.7259L33.0995 41.4042L32.5953 40.4471L33.0939 39.4932L32.0658 39.1686L31.7238 38.1577L30.7874 38.6388L29.8128 38.1633Z" stroke="#B8B8B8" stroke-width="0.3" stroke-miterlimit="10"/>
<path d="M16.4685 43.7338C18.2716 43.7338 19.7333 42.2721 19.7333 40.4689C19.7333 38.6658 18.2716 37.2041 16.4685 37.2041C14.6653 37.2041 13.2036 38.6658 13.2036 40.4689C13.2036 42.2721 14.6653 43.7338 16.4685 43.7338Z" stroke="#B8B8B8" stroke-width="0.3" stroke-miterlimit="10"/>
<path d="M16.4687 38.6384L17.7472 39.1682L18.2767 40.4467L17.7472 41.7255L16.4687 42.255L15.1899 41.7255L14.6604 40.4467L15.1899 39.1682L16.4687 38.6384Z" stroke="#B8B8B8" stroke-width="0.3" stroke-miterlimit="10"/>
<path d="M18.7749 41.3936V42.7766H17.4436" stroke="#B8B8B8" stroke-width="0.3" stroke-miterlimit="10" stroke-linejoin="bevel"/>
<path d="M17.4077 38.1599H18.7757V39.4901" stroke="#B8B8B8" stroke-width="0.3" stroke-miterlimit="10" stroke-linejoin="bevel"/>
<path d="M14.1589 39.5282V38.1599H15.4941" stroke="#B8B8B8" stroke-width="0.3" stroke-miterlimit="10" stroke-linejoin="bevel"/>
<path d="M15.5417 42.7764H14.1589V41.438" stroke="#B8B8B8" stroke-width="0.3" stroke-miterlimit="10" stroke-linejoin="bevel"/>
<path d="M17.7477 43.4737L17.4435 42.7747L16.4692 43.7336L15.5324 42.78L15.1904 43.4737" stroke="#B8B8B8" stroke-width="0.3" stroke-miterlimit="10" stroke-linejoin="bevel"/>
<path d="M15.1904 37.464L15.4946 38.163L16.4692 37.2041L17.4057 38.1574L17.7477 37.464" stroke="#B8B8B8" stroke-width="0.3" stroke-miterlimit="10" stroke-linejoin="bevel"/>
<path d="M13.4638 41.746L14.1625 41.4418L13.2036 40.4672L14.1572 39.5307L13.4635 39.1887" stroke="#B8B8B8" stroke-width="0.3" stroke-miterlimit="10" stroke-linejoin="bevel"/>
<path d="M19.4744 39.1887L18.7754 39.4929L19.7343 40.4672L18.781 41.404L19.4744 41.746" stroke="#B8B8B8" stroke-width="0.3" stroke-miterlimit="10" stroke-linejoin="bevel"/>
<path d="M15.4947 38.1633L15.1905 39.1686L14.1577 39.531L14.661 40.4471L14.163 41.442L15.1905 41.7259L15.5325 42.7805L16.4692 42.2554L17.4435 42.7751L17.7477 41.7259L18.7813 41.4042L18.2772 40.4471L18.7757 39.4932L17.7477 39.1686L17.4057 38.1577L16.4692 38.6388L15.4947 38.1633Z" stroke="#B8B8B8" stroke-width="0.3" stroke-miterlimit="10"/>
<rect x="12.9775" y="36.9768" width="21.0456" height="7.13641" rx="2.75" stroke="#B8B8B8" stroke-width="0.5"/>
<circle cx="21.1806" cy="37.6814" r="0.804551" fill="white" stroke="#B8B8B8" stroke-width="0.3"/>
<circle cx="26.6367" cy="37.6814" r="0.804551" fill="white" stroke="#B8B8B8" stroke-width="0.3"/>
<circle cx="21.1806" cy="43.4087" r="0.804551" fill="white" stroke="#B8B8B8" stroke-width="0.3"/>
<circle cx="26.6367" cy="43.4087" r="0.804551" fill="white" stroke="#B8B8B8" stroke-width="0.3"/>
<circle cx="28.4091" cy="37.6814" r="0.804551" fill="white" stroke="#B8B8B8" stroke-width="0.3"/>
<circle cx="28.4091" cy="43.4087" r="0.804551" fill="white" stroke="#B8B8B8" stroke-width="0.3"/>
<circle cx="33.5913" cy="37.6814" r="0.804551" fill="white" stroke="#B8B8B8" stroke-width="0.3"/>
<circle cx="33.5913" cy="43.4087" r="0.804551" fill="white" stroke="#B8B8B8" stroke-width="0.3"/>
<circle cx="19.4082" cy="43.4087" r="0.804551" fill="white" stroke="#B8B8B8" stroke-width="0.3"/>
<circle cx="13.6814" cy="43.4087" r="0.804551" fill="white" stroke="#B8B8B8" stroke-width="0.3"/>
<circle cx="19.4082" cy="37.6814" r="0.804551" fill="white" stroke="#B8B8B8" stroke-width="0.3"/>
<circle cx="13.6814" cy="37.6814" r="0.804551" fill="white" stroke="#B8B8B8" stroke-width="0.3"/>
<path d="M23.9999 32.9974C31.7307 32.9974 37.9977 26.7304 37.9977 18.9997C37.9977 11.269 31.7307 5.00195 23.9999 5.00195C16.2692 5.00195 10.0022 11.269 10.0022 18.9997C10.0022 26.7304 16.2692 32.9974 23.9999 32.9974Z" stroke="#B8B8B8" stroke-width="0.5" stroke-miterlimit="10"/>
<path d="M23.9995 11.1523L29.4808 13.4239L31.7511 18.9052L29.4808 24.3878L23.9995 26.6581L18.5169 24.3878L16.2466 18.9052L18.5169 13.4239L23.9995 11.1523Z" stroke="#B8B8B8" stroke-width="0.5" stroke-miterlimit="10"/>
<path d="M33.8894 22.9641V28.8937H28.1814" stroke="#B8B8B8" stroke-width="0.5" stroke-miterlimit="10" stroke-linejoin="bevel"/>
<path d="M28.0239 9.10205H33.8889V14.805" stroke="#B8B8B8" stroke-width="0.5" stroke-miterlimit="10" stroke-linejoin="bevel"/>
<path d="M14.0967 14.9683V9.10205H19.8211" stroke="#B8B8B8" stroke-width="0.5" stroke-miterlimit="10" stroke-linejoin="bevel"/>
<path d="M20.025 28.8939H14.0967V23.1555" stroke="#B8B8B8" stroke-width="0.5" stroke-miterlimit="10" stroke-linejoin="bevel"/>
<path d="M29.482 31.8836L28.1778 28.8865L24.0007 32.9978L19.9843 28.9093L18.5181 31.8836" stroke="#B8B8B8" stroke-width="0.5" stroke-miterlimit="10" stroke-linejoin="bevel"/>
<path d="M18.5181 6.1162L19.8222 9.11328L24.0007 5.00195L28.0158 9.08922L29.482 6.1162" stroke="#B8B8B8" stroke-width="0.5" stroke-miterlimit="10" stroke-linejoin="bevel"/>
<path d="M11.116 24.4752L14.1118 23.171L10.0005 18.9926L14.089 14.9775L11.1147 13.5112" stroke="#B8B8B8" stroke-width="0.5" stroke-miterlimit="10" stroke-linejoin="bevel"/>
<path d="M36.8857 13.5112L33.8887 14.8154L38 18.9926L33.9127 23.0089L36.8857 24.4752" stroke="#B8B8B8" stroke-width="0.5" stroke-miterlimit="10" stroke-linejoin="bevel"/>
<path d="M19.8209 9.11341L18.5167 13.4235L14.0889 14.9771L16.2465 18.9049L14.1117 23.1707L18.5167 24.3875L19.983 28.9091L23.9993 26.6578L28.1765 28.8863L29.4807 24.3875L33.9124 23.0086L31.751 18.9049L33.8883 14.8151L29.4807 13.4235L28.0144 9.08936L23.9993 11.152L19.8209 9.11341Z" stroke="#B8B8B8" stroke-width="0.5" stroke-miterlimit="10"/>
<circle cx="12.462" cy="7.46152" r="3.21152" fill="white" stroke="#B8B8B8" stroke-width="0.5"/>
<circle cx="35.5392" cy="7.46152" r="3.21152" fill="white" stroke="#B8B8B8" stroke-width="0.5"/>
<circle cx="35.5392" cy="30.5384" r="3.21152" fill="white" stroke="#B8B8B8" stroke-width="0.5"/>
<circle cx="12.462" cy="30.5384" r="3.21152" fill="white" stroke="#B8B8B8" stroke-width="0.5"/>
</svg>
