<svg width="48" height="48" viewBox="0 0 48 48" fill="none" xmlns="http://www.w3.org/2000/svg">
<rect x="32.25" y="36.25" width="2.22729" height="7.00004" rx="1.11364" stroke="#B8B8B8" stroke-width="0.5"/>
<rect x="14.25" y="36.25" width="2.22729" height="7.00004" rx="1.11364" stroke="#B8B8B8" stroke-width="0.5"/>
<path d="M27.9685 43.007C29.7716 43.007 31.2333 41.5453 31.2333 39.7421C31.2333 37.939 29.7716 36.4773 27.9685 36.4773C26.1653 36.4773 24.7036 37.939 24.7036 39.7421C24.7036 41.5453 26.1653 43.007 27.9685 43.007Z" stroke="#B8B8B8" stroke-width="0.3" stroke-miterlimit="10"/>
<path d="M27.9689 37.9116L29.2474 38.4414L29.7769 39.7199L29.2474 40.9987L27.9689 41.5282L26.6902 40.9987L26.1606 39.7199L26.6902 38.4414L27.9689 37.9116Z" stroke="#B8B8B8" stroke-width="0.3" stroke-miterlimit="10"/>
<path d="M30.2752 40.6667V42.0498H28.9438" stroke="#B8B8B8" stroke-width="0.3" stroke-miterlimit="10" stroke-linejoin="bevel"/>
<path d="M28.9077 37.4331H30.2757V38.7633" stroke="#B8B8B8" stroke-width="0.3" stroke-miterlimit="10" stroke-linejoin="bevel"/>
<path d="M25.6592 38.8014V37.4331H26.9944" stroke="#B8B8B8" stroke-width="0.3" stroke-miterlimit="10" stroke-linejoin="bevel"/>
<path d="M27.0419 42.0496H25.6592V40.7112" stroke="#B8B8B8" stroke-width="0.3" stroke-miterlimit="10" stroke-linejoin="bevel"/>
<path d="M29.2477 42.7469L28.9435 42.0479L27.9692 43.0068L27.0324 42.0532L26.6904 42.7469" stroke="#B8B8B8" stroke-width="0.3" stroke-miterlimit="10" stroke-linejoin="bevel"/>
<path d="M26.6904 36.7372L26.9946 37.4362L27.9692 36.4773L28.9057 37.4306L29.2477 36.7372" stroke="#B8B8B8" stroke-width="0.3" stroke-miterlimit="10" stroke-linejoin="bevel"/>
<path d="M24.9638 41.0191L25.6625 40.715L24.7036 39.7404L25.6572 38.8039L24.9635 38.4619" stroke="#B8B8B8" stroke-width="0.3" stroke-miterlimit="10" stroke-linejoin="bevel"/>
<path d="M30.9744 38.4619L30.2754 38.7661L31.2343 39.7404L30.281 40.6772L30.9744 41.0191" stroke="#B8B8B8" stroke-width="0.3" stroke-miterlimit="10" stroke-linejoin="bevel"/>
<path d="M26.9947 37.4365L26.6905 38.4418L25.6577 38.8042L26.161 39.7203L25.663 40.7152L26.6905 40.999L27.0325 42.0537L27.9692 41.5286L28.9435 42.0483L29.2477 40.999L30.2813 40.6774L29.7772 39.7203L30.2757 38.7664L29.2477 38.4418L28.9057 37.4309L27.9692 37.912L26.9947 37.4365Z" stroke="#B8B8B8" stroke-width="0.3" stroke-miterlimit="10"/>
<path d="M20.4685 43.007C22.2716 43.007 23.7333 41.5453 23.7333 39.7421C23.7333 37.939 22.2716 36.4773 20.4685 36.4773C18.6653 36.4773 17.2036 37.939 17.2036 39.7421C17.2036 41.5453 18.6653 43.007 20.4685 43.007Z" stroke="#B8B8B8" stroke-width="0.3" stroke-miterlimit="10"/>
<path d="M20.4689 37.9116L21.7474 38.4414L22.2769 39.7199L21.7474 40.9987L20.4689 41.5282L19.1902 40.9987L18.6606 39.7199L19.1902 38.4414L20.4689 37.9116Z" stroke="#B8B8B8" stroke-width="0.3" stroke-miterlimit="10"/>
<path d="M22.7752 40.6667V42.0498H21.4438" stroke="#B8B8B8" stroke-width="0.3" stroke-miterlimit="10" stroke-linejoin="bevel"/>
<path d="M21.4077 37.4331H22.7757V38.7633" stroke="#B8B8B8" stroke-width="0.3" stroke-miterlimit="10" stroke-linejoin="bevel"/>
<path d="M18.1592 38.8014V37.4331H19.4944" stroke="#B8B8B8" stroke-width="0.3" stroke-miterlimit="10" stroke-linejoin="bevel"/>
<path d="M19.5419 42.0496H18.1592V40.7112" stroke="#B8B8B8" stroke-width="0.3" stroke-miterlimit="10" stroke-linejoin="bevel"/>
<path d="M21.7477 42.7469L21.4435 42.0479L20.4692 43.0068L19.5324 42.0532L19.1904 42.7469" stroke="#B8B8B8" stroke-width="0.3" stroke-miterlimit="10" stroke-linejoin="bevel"/>
<path d="M19.1904 36.7372L19.4946 37.4362L20.4692 36.4773L21.4057 37.4306L21.7477 36.7372" stroke="#B8B8B8" stroke-width="0.3" stroke-miterlimit="10" stroke-linejoin="bevel"/>
<path d="M17.4638 41.0191L18.1625 40.715L17.2036 39.7404L18.1572 38.8039L17.4635 38.4619" stroke="#B8B8B8" stroke-width="0.3" stroke-miterlimit="10" stroke-linejoin="bevel"/>
<path d="M23.4744 38.4619L22.7754 38.7661L23.7343 39.7404L22.781 40.6772L23.4744 41.0191" stroke="#B8B8B8" stroke-width="0.3" stroke-miterlimit="10" stroke-linejoin="bevel"/>
<path d="M19.4947 37.4365L19.1905 38.4418L18.1577 38.8042L18.661 39.7203L18.163 40.7152L19.1905 40.999L19.5325 42.0537L20.4692 41.5286L21.4435 42.0483L21.7477 40.999L22.7813 40.6774L22.2772 39.7203L22.7757 38.7664L21.7477 38.4418L21.4057 37.4309L20.4692 37.912L19.4947 37.4365Z" stroke="#B8B8B8" stroke-width="0.3" stroke-miterlimit="10"/>
<rect x="17.25" y="36.25" width="14.2" height="7.1" rx="2.75" stroke="#B8B8B8" stroke-width="0.5"/>
<circle cx="25.1806" cy="36.9546" r="0.804551" fill="white" stroke="#B8B8B8" stroke-width="0.3"/>
<circle cx="30.6367" cy="36.9546" r="0.804551" fill="white" stroke="#B8B8B8" stroke-width="0.3"/>
<circle cx="25.1806" cy="42.6818" r="0.804551" fill="white" stroke="#B8B8B8" stroke-width="0.3"/>
<circle cx="30.6367" cy="42.6818" r="0.804551" fill="white" stroke="#B8B8B8" stroke-width="0.3"/>
<circle cx="23.4082" cy="42.6818" r="0.804551" fill="white" stroke="#B8B8B8" stroke-width="0.3"/>
<circle cx="17.6816" cy="42.6818" r="0.804551" fill="white" stroke="#B8B8B8" stroke-width="0.3"/>
<circle cx="23.4082" cy="36.9546" r="0.804551" fill="white" stroke="#B8B8B8" stroke-width="0.3"/>
<circle cx="17.6816" cy="36.9546" r="0.804551" fill="white" stroke="#B8B8B8" stroke-width="0.3"/>
<path d="M24.0004 28.9987C29.5227 28.9987 33.9994 24.522 33.9994 18.9997C33.9994 13.4774 29.5227 9.00073 24.0004 9.00073C18.4782 9.00073 14.0015 13.4774 14.0015 18.9997C14.0015 24.522 18.4782 28.9987 24.0004 28.9987Z" stroke="#B8B8B8" stroke-width="0.5" stroke-miterlimit="10"/>
<path d="M24 13.3943L27.9155 15.0169L29.5372 18.9324L27.9155 22.8488L24 24.4705L20.0836 22.8488L18.4619 18.9324L20.0836 15.0169L24 13.3943Z" stroke="#B8B8B8" stroke-width="0.5" stroke-miterlimit="10"/>
<path d="M31.0652 21.8318V26.0674H26.9878" stroke="#B8B8B8" stroke-width="0.5" stroke-miterlimit="10" stroke-linejoin="bevel"/>
<path d="M26.875 11.9297H31.0645V16.0034" stroke="#B8B8B8" stroke-width="0.5" stroke-miterlimit="10" stroke-linejoin="bevel"/>
<path d="M16.9268 16.1201V11.9297H21.0159" stroke="#B8B8B8" stroke-width="0.5" stroke-miterlimit="10" stroke-linejoin="bevel"/>
<path d="M21.1615 26.0676H16.9268V21.9685" stroke="#B8B8B8" stroke-width="0.5" stroke-miterlimit="10" stroke-linejoin="bevel"/>
<path d="M27.9163 28.2032L26.9847 26.0623L24.0009 28.9991L21.1319 26.0785L20.0845 28.2032" stroke="#B8B8B8" stroke-width="0.5" stroke-miterlimit="10" stroke-linejoin="bevel"/>
<path d="M20.0845 9.79667L21.0161 11.9376L24.0009 9.00073L26.8689 11.9204L27.9163 9.79667" stroke="#B8B8B8" stroke-width="0.5" stroke-miterlimit="10" stroke-linejoin="bevel"/>
<path d="M14.7968 22.9112L16.9368 21.9796L14 18.9948L16.9206 16.1267L14.7959 15.0793" stroke="#B8B8B8" stroke-width="0.5" stroke-miterlimit="10" stroke-linejoin="bevel"/>
<path d="M33.2053 15.0793L31.0645 16.011L34.0013 18.9948L31.0816 21.8638L33.2053 22.9112" stroke="#B8B8B8" stroke-width="0.5" stroke-miterlimit="10" stroke-linejoin="bevel"/>
<path d="M21.0159 11.9376L20.0843 15.0164L16.9214 16.1262L18.4626 18.9319L16.9377 21.9791L20.0843 22.8483L21.1317 26.0782L24.0007 24.47L26.9846 26.0619L27.9162 22.8483L31.0819 21.8633L29.5379 18.9319L31.0647 16.0105L27.9162 15.0164L26.8688 11.9204L24.0007 13.3938L21.0159 11.9376Z" stroke="#B8B8B8" stroke-width="0.5" stroke-miterlimit="10"/>
<circle cx="16" cy="11" r="2.75" fill="white" stroke="#B8B8B8" stroke-width="0.5"/>
<circle cx="32" cy="11" r="2.75" fill="white" stroke="#B8B8B8" stroke-width="0.5"/>
<circle cx="32" cy="27" r="2.75" fill="white" stroke="#B8B8B8" stroke-width="0.5"/>
<circle cx="16" cy="27" r="2.75" fill="white" stroke="#B8B8B8" stroke-width="0.5"/>
</svg>
