<svg width="48" height="48" viewBox="0 0 48 48" fill="none" xmlns="http://www.w3.org/2000/svg">
<path d="M16.9209 44.2891C18.2577 44.2891 19.3414 42.7577 19.3414 40.8688C19.3414 38.9798 18.2577 37.4485 16.9209 37.4485C15.5842 37.4485 14.5005 38.9798 14.5005 40.8688C14.5005 42.7577 15.5842 44.2891 16.9209 44.2891Z" stroke="#B8B8B8" stroke-width="0.3" stroke-miterlimit="10"/>
<path d="M16.9212 38.9509L17.869 39.506L18.2615 40.8453L17.869 42.185L16.9212 42.7397L15.9731 42.185L15.5806 40.8453L15.9731 39.506L16.9212 38.9509Z" stroke="#B8B8B8" stroke-width="0.3" stroke-miterlimit="10"/>
<path d="M18.6301 41.8374V43.2863H17.6431" stroke="#B8B8B8" stroke-width="0.3" stroke-miterlimit="10" stroke-linejoin="bevel"/>
<path d="M17.6157 38.4497H18.6299V39.8432" stroke="#B8B8B8" stroke-width="0.3" stroke-miterlimit="10" stroke-linejoin="bevel"/>
<path d="M15.208 39.8831V38.4497H16.1979" stroke="#B8B8B8" stroke-width="0.3" stroke-miterlimit="10" stroke-linejoin="bevel"/>
<path d="M16.2331 43.2859H15.208V41.8838" stroke="#B8B8B8" stroke-width="0.3" stroke-miterlimit="10" stroke-linejoin="bevel"/>
<path d="M17.869 44.0165L17.6435 43.2842L16.9212 44.2888L16.2267 43.2897L15.9731 44.0165" stroke="#B8B8B8" stroke-width="0.3" stroke-miterlimit="10" stroke-linejoin="bevel"/>
<path d="M15.9731 37.7207L16.1987 38.4531L16.9212 37.4485L17.6154 38.4472L17.869 37.7207" stroke="#B8B8B8" stroke-width="0.3" stroke-miterlimit="10" stroke-linejoin="bevel"/>
<path d="M14.6934 42.2063L15.2114 41.8877L14.5005 40.8667L15.2075 39.8856L14.6932 39.5273" stroke="#B8B8B8" stroke-width="0.3" stroke-miterlimit="10" stroke-linejoin="bevel"/>
<path d="M19.1486 39.5273L18.6304 39.846L19.3413 40.8667L18.6345 41.8481L19.1486 42.2063" stroke="#B8B8B8" stroke-width="0.3" stroke-miterlimit="10" stroke-linejoin="bevel"/>
<path d="M16.1982 38.4529L15.9727 39.5061L15.207 39.8857L15.5801 40.8454L15.211 41.8877L15.9727 42.185L16.2262 43.2899L16.9207 42.7398L17.643 43.2843L17.8685 42.185L18.6348 41.8481L18.2611 40.8454L18.6307 39.8461L17.8685 39.5061L17.615 38.447L16.9207 38.951L16.1982 38.4529Z" stroke="#B8B8B8" stroke-width="0.3" stroke-miterlimit="10"/>
<path d="M23.9198 44.2891C25.8088 44.2891 27.3401 42.7577 27.3401 40.8688C27.3401 38.9798 25.8088 37.4485 23.9198 37.4485C22.0308 37.4485 20.4995 38.9798 20.4995 40.8688C20.4995 42.7577 22.0308 44.2891 23.9198 44.2891Z" stroke="#B8B8B8" stroke-width="0.3" stroke-miterlimit="10"/>
<path d="M23.9208 38.9509L25.2601 39.506L25.8148 40.8453L25.2601 42.185L23.9208 42.7397L22.5811 42.185L22.0264 40.8453L22.5811 39.506L23.9208 38.9509Z" stroke="#B8B8B8" stroke-width="0.3" stroke-miterlimit="10"/>
<path d="M26.3361 41.8374V43.2863H24.9414" stroke="#B8B8B8" stroke-width="0.3" stroke-miterlimit="10" stroke-linejoin="bevel"/>
<path d="M24.9043 38.4497H26.3374V39.8432" stroke="#B8B8B8" stroke-width="0.3" stroke-miterlimit="10" stroke-linejoin="bevel"/>
<path d="M21.501 39.8831V38.4497H22.8997" stroke="#B8B8B8" stroke-width="0.3" stroke-miterlimit="10" stroke-linejoin="bevel"/>
<path d="M22.9495 43.2859H21.501V41.8838" stroke="#B8B8B8" stroke-width="0.3" stroke-miterlimit="10" stroke-linejoin="bevel"/>
<path d="M25.26 44.0165L24.9414 43.2842L23.9207 44.2888L22.9393 43.2897L22.5811 44.0165" stroke="#B8B8B8" stroke-width="0.3" stroke-miterlimit="10" stroke-linejoin="bevel"/>
<path d="M22.5811 37.7207L22.8997 38.4531L23.9207 37.4485L24.9018 38.4472L25.26 37.7207" stroke="#B8B8B8" stroke-width="0.3" stroke-miterlimit="10" stroke-linejoin="bevel"/>
<path d="M20.7721 42.2063L21.5041 41.8877L20.4995 40.8667L21.4985 39.8856L20.7718 39.5273" stroke="#B8B8B8" stroke-width="0.3" stroke-miterlimit="10" stroke-linejoin="bevel"/>
<path d="M27.0692 39.5273L26.3369 39.846L27.3415 40.8667L26.3428 41.8481L27.0692 42.2063" stroke="#B8B8B8" stroke-width="0.3" stroke-miterlimit="10" stroke-linejoin="bevel"/>
<path d="M22.9001 38.4529L22.5814 39.5061L21.4995 39.8857L22.0267 40.8454L21.5051 41.8877L22.5814 42.185L22.9397 43.2899L23.9211 42.7398L24.9418 43.2843L25.2604 42.185L26.3433 41.8481L25.8152 40.8454L26.3374 39.8461L25.2604 39.5061L24.9022 38.447L23.9211 38.951L22.9001 38.4529Z" stroke="#B8B8B8" stroke-width="0.3" stroke-miterlimit="10"/>
<path d="M30.9992 44.2891C32.3798 44.2891 33.4989 42.7577 33.4989 40.8688C33.4989 38.9798 32.3798 37.4485 30.9992 37.4485C29.6187 37.4485 28.4995 38.9798 28.4995 40.8688C28.4995 42.7577 29.6187 44.2891 30.9992 44.2891Z" stroke="#B8B8B8" stroke-width="0.3" stroke-miterlimit="10"/>
<path d="M30.9997 38.9509L31.9786 39.506L32.384 40.8453L31.9786 42.185L30.9997 42.7397L30.0207 42.185L29.6152 40.8453L30.0207 39.506L30.9997 38.9509Z" stroke="#B8B8B8" stroke-width="0.3" stroke-miterlimit="10"/>
<path d="M32.7664 41.8374V43.2863H31.7471" stroke="#B8B8B8" stroke-width="0.3" stroke-miterlimit="10" stroke-linejoin="bevel"/>
<path d="M31.7188 38.4497H32.7661V39.8432" stroke="#B8B8B8" stroke-width="0.3" stroke-miterlimit="10" stroke-linejoin="bevel"/>
<path d="M29.2314 39.8831V38.4497H30.2537" stroke="#B8B8B8" stroke-width="0.3" stroke-miterlimit="10" stroke-linejoin="bevel"/>
<path d="M30.2901 43.2859H29.2314V41.8838" stroke="#B8B8B8" stroke-width="0.3" stroke-miterlimit="10" stroke-linejoin="bevel"/>
<path d="M31.9794 44.0165L31.7465 43.2842L31.0006 44.2888L30.2833 43.2897L30.0215 44.0165" stroke="#B8B8B8" stroke-width="0.3" stroke-miterlimit="10" stroke-linejoin="bevel"/>
<path d="M30.0215 37.7207L30.2544 38.4531L31.0006 37.4485L31.7176 38.4472L31.9794 37.7207" stroke="#B8B8B8" stroke-width="0.3" stroke-miterlimit="10" stroke-linejoin="bevel"/>
<path d="M28.6987 42.2063L29.2337 41.8877L28.4995 40.8667L29.2296 39.8856L28.6985 39.5273" stroke="#B8B8B8" stroke-width="0.3" stroke-miterlimit="10" stroke-linejoin="bevel"/>
<path d="M33.3003 39.5273L32.7651 39.846L33.4993 40.8667L32.7694 41.8481L33.3003 42.2063" stroke="#B8B8B8" stroke-width="0.3" stroke-miterlimit="10" stroke-linejoin="bevel"/>
<path d="M30.2541 38.4529L30.0212 39.5061L29.2305 39.8857L29.6158 40.8454L29.2345 41.8877L30.0212 42.185L30.283 43.2899L31.0003 42.7398L31.7462 43.2843L31.9791 42.185L32.7705 41.8481L32.3845 40.8454L32.7662 39.8461L31.9791 39.5061L31.7173 38.447L31.0003 38.951L30.2541 38.4529Z" stroke="#B8B8B8" stroke-width="0.3" stroke-miterlimit="10"/>
<circle cx="19.0005" cy="37.9482" r="0.85" fill="white" stroke="#B8B8B8" stroke-width="0.3"/>
<circle cx="21.0005" cy="37.9482" r="0.85" fill="white" stroke="#B8B8B8" stroke-width="0.3"/>
<circle cx="19.0005" cy="43.9482" r="0.85" fill="white" stroke="#B8B8B8" stroke-width="0.3"/>
<circle cx="21.0005" cy="43.9482" r="0.85" fill="white" stroke="#B8B8B8" stroke-width="0.3"/>
<circle cx="27" cy="43.9482" r="0.85" fill="white" stroke="#B8B8B8" stroke-width="0.3"/>
<circle cx="29" cy="43.9482" r="0.85" fill="white" stroke="#B8B8B8" stroke-width="0.3"/>
<circle cx="29" cy="37.9482" r="0.85" fill="white" stroke="#B8B8B8" stroke-width="0.3"/>
<circle cx="27" cy="37.9482" r="0.85" fill="white" stroke="#B8B8B8" stroke-width="0.3"/>
<rect x="14.25" y="37.1982" width="19.5" height="7.5" rx="2.75" stroke="#B8B8B8" stroke-width="0.5"/>
<path d="M24.0004 28.9987C29.5227 28.9987 33.9994 24.522 33.9994 18.9997C33.9994 13.4774 29.5227 9.00073 24.0004 9.00073C18.4782 9.00073 14.0015 13.4774 14.0015 18.9997C14.0015 24.522 18.4782 28.9987 24.0004 28.9987Z" stroke="#B8B8B8" stroke-width="0.5" stroke-miterlimit="10"/>
<path d="M24 13.3943L27.9155 15.0169L29.5372 18.9324L27.9155 22.8488L24 24.4705L20.0836 22.8488L18.4619 18.9324L20.0836 15.0169L24 13.3943Z" stroke="#B8B8B8" stroke-width="0.5" stroke-miterlimit="10"/>
<path d="M31.0652 21.8318V26.0674H26.9878" stroke="#B8B8B8" stroke-width="0.5" stroke-miterlimit="10" stroke-linejoin="bevel"/>
<path d="M26.875 11.9297H31.0645V16.0034" stroke="#B8B8B8" stroke-width="0.5" stroke-miterlimit="10" stroke-linejoin="bevel"/>
<path d="M16.9268 16.1201V11.9297H21.0159" stroke="#B8B8B8" stroke-width="0.5" stroke-miterlimit="10" stroke-linejoin="bevel"/>
<path d="M21.1615 26.0676H16.9268V21.9685" stroke="#B8B8B8" stroke-width="0.5" stroke-miterlimit="10" stroke-linejoin="bevel"/>
<path d="M27.9163 28.2032L26.9847 26.0623L24.0009 28.9991L21.1319 26.0785L20.0845 28.2032" stroke="#B8B8B8" stroke-width="0.5" stroke-miterlimit="10" stroke-linejoin="bevel"/>
<path d="M20.0845 9.79667L21.0161 11.9376L24.0009 9.00073L26.8689 11.9204L27.9163 9.79667" stroke="#B8B8B8" stroke-width="0.5" stroke-miterlimit="10" stroke-linejoin="bevel"/>
<path d="M14.7968 22.9112L16.9368 21.9796L14 18.9948L16.9206 16.1267L14.7959 15.0793" stroke="#B8B8B8" stroke-width="0.5" stroke-miterlimit="10" stroke-linejoin="bevel"/>
<path d="M33.2053 15.0793L31.0645 16.011L34.0013 18.9948L31.0816 21.8638L33.2053 22.9112" stroke="#B8B8B8" stroke-width="0.5" stroke-miterlimit="10" stroke-linejoin="bevel"/>
<path d="M21.0159 11.9376L20.0843 15.0164L16.9214 16.1262L18.4626 18.9319L16.9377 21.9791L20.0843 22.8483L21.1317 26.0782L24.0007 24.47L26.9846 26.0619L27.9162 22.8483L31.0819 21.8633L29.5379 18.9319L31.0647 16.0105L27.9162 15.0164L26.8688 11.9204L24.0007 13.3938L21.0159 11.9376Z" stroke="#B8B8B8" stroke-width="0.5" stroke-miterlimit="10"/>
<circle cx="16" cy="11" r="2.75" fill="white" stroke="#B8B8B8" stroke-width="0.5"/>
<circle cx="32" cy="11" r="2.75" fill="white" stroke="#B8B8B8" stroke-width="0.5"/>
<circle cx="32" cy="27" r="2.75" fill="white" stroke="#B8B8B8" stroke-width="0.5"/>
<circle cx="16" cy="27" r="2.75" fill="white" stroke="#B8B8B8" stroke-width="0.5"/>
</svg>
