<svg width="48" height="48" viewBox="0 0 48 48" fill="none" xmlns="http://www.w3.org/2000/svg">
<path d="M24.0001 45.6692C26.1519 45.6692 27.8962 43.9248 27.8962 41.773C27.8962 39.6211 26.1519 37.8767 24.0001 37.8767C21.8484 37.8767 20.104 39.6211 20.104 41.773C20.104 43.9248 21.8484 45.6692 24.0001 45.6692Z" stroke="#B8B8B8" stroke-width="0.3" stroke-miterlimit="10"/>
<path d="M24.0002 39.5881L25.5259 40.2204L26.1578 41.7461L25.5259 43.2722L24.0002 43.9041L22.4742 43.2722L21.8423 41.7461L22.4742 40.2204L24.0002 39.5881Z" stroke="#B8B8B8" stroke-width="0.3" stroke-miterlimit="10"/>
<path d="M26.7518 42.8765V44.527H25.1631" stroke="#B8B8B8" stroke-width="0.3" stroke-miterlimit="10" stroke-linejoin="bevel"/>
<path d="M25.1206 39.0178H26.7531V40.6052" stroke="#B8B8B8" stroke-width="0.3" stroke-miterlimit="10" stroke-linejoin="bevel"/>
<path d="M21.2441 40.6507V39.0178H22.8375" stroke="#B8B8B8" stroke-width="0.3" stroke-miterlimit="10" stroke-linejoin="bevel"/>
<path d="M22.8942 44.5265H21.2441V42.9292" stroke="#B8B8B8" stroke-width="0.3" stroke-miterlimit="10" stroke-linejoin="bevel"/>
<path d="M25.5268 45.3591L25.1638 44.5249L24.0011 45.6693L22.8832 44.5312L22.4751 45.3591" stroke="#B8B8B8" stroke-width="0.3" stroke-miterlimit="10" stroke-linejoin="bevel"/>
<path d="M22.4751 38.1869L22.8381 39.0211L24.0011 37.8767L25.1187 39.0144L25.5268 38.1869" stroke="#B8B8B8" stroke-width="0.3" stroke-miterlimit="10" stroke-linejoin="bevel"/>
<path d="M20.4145 43.2967L21.2483 42.9337L20.104 41.7706L21.242 40.653L20.4141 40.2449" stroke="#B8B8B8" stroke-width="0.3" stroke-miterlimit="10" stroke-linejoin="bevel"/>
<path d="M27.5876 40.2449L26.7534 40.6079L27.8978 41.7706L26.7601 42.8885L27.5876 43.2967" stroke="#B8B8B8" stroke-width="0.3" stroke-miterlimit="10" stroke-linejoin="bevel"/>
<path d="M22.8376 39.0218L22.4746 40.2215L21.2422 40.654L21.8427 41.7473L21.2485 42.9347L22.4746 43.2734L22.8828 44.5319L24.0007 43.9053L25.1633 44.5256L25.5263 43.2734L26.7598 42.8895L26.1582 41.7473L26.7531 40.6089L25.5263 40.2215L25.1182 39.0151L24.0007 39.5893L22.8376 39.0218Z" stroke="#B8B8B8" stroke-width="0.3" stroke-miterlimit="10"/>
<rect x="18.7954" y="36.5681" width="10.4093" height="10.4093" rx="5.20464" stroke="#B8B8B8" stroke-width="0.5"/>
<path d="M24.0004 28.9987C29.5227 28.9987 33.9994 24.522 33.9994 18.9997C33.9994 13.4774 29.5227 9.00073 24.0004 9.00073C18.4782 9.00073 14.0015 13.4774 14.0015 18.9997C14.0015 24.522 18.4782 28.9987 24.0004 28.9987Z" stroke="#B8B8B8" stroke-width="0.5" stroke-miterlimit="10"/>
<path d="M24 13.3943L27.9155 15.0169L29.5372 18.9324L27.9155 22.8488L24 24.4705L20.0836 22.8488L18.4619 18.9324L20.0836 15.0169L24 13.3943Z" stroke="#B8B8B8" stroke-width="0.5" stroke-miterlimit="10"/>
<path d="M31.0652 21.8318V26.0674H26.9878" stroke="#B8B8B8" stroke-width="0.5" stroke-miterlimit="10" stroke-linejoin="bevel"/>
<path d="M26.875 11.9297H31.0645V16.0034" stroke="#B8B8B8" stroke-width="0.5" stroke-miterlimit="10" stroke-linejoin="bevel"/>
<path d="M16.9268 16.1201V11.9297H21.0159" stroke="#B8B8B8" stroke-width="0.5" stroke-miterlimit="10" stroke-linejoin="bevel"/>
<path d="M21.1615 26.0676H16.9268V21.9685" stroke="#B8B8B8" stroke-width="0.5" stroke-miterlimit="10" stroke-linejoin="bevel"/>
<path d="M27.9163 28.2032L26.9847 26.0623L24.0009 28.9991L21.1319 26.0785L20.0845 28.2032" stroke="#B8B8B8" stroke-width="0.5" stroke-miterlimit="10" stroke-linejoin="bevel"/>
<path d="M20.0845 9.79667L21.0161 11.9376L24.0009 9.00073L26.8689 11.9204L27.9163 9.79667" stroke="#B8B8B8" stroke-width="0.5" stroke-miterlimit="10" stroke-linejoin="bevel"/>
<path d="M14.7968 22.9112L16.9368 21.9796L14 18.9948L16.9206 16.1267L14.7959 15.0793" stroke="#B8B8B8" stroke-width="0.5" stroke-miterlimit="10" stroke-linejoin="bevel"/>
<path d="M33.2053 15.0793L31.0645 16.011L34.0013 18.9948L31.0816 21.8638L33.2053 22.9112" stroke="#B8B8B8" stroke-width="0.5" stroke-miterlimit="10" stroke-linejoin="bevel"/>
<path d="M21.0159 11.9376L20.0843 15.0164L16.9214 16.1262L18.4626 18.9319L16.9377 21.9791L20.0843 22.8483L21.1317 26.0782L24.0007 24.47L26.9846 26.0619L27.9162 22.8483L31.0819 21.8633L29.5379 18.9319L31.0647 16.0105L27.9162 15.0164L26.8688 11.9204L24.0007 13.3938L21.0159 11.9376Z" stroke="#B8B8B8" stroke-width="0.5" stroke-miterlimit="10"/>
<circle cx="16" cy="11" r="2.75" fill="white" stroke="#B8B8B8" stroke-width="0.5"/>
<circle cx="32" cy="11" r="2.75" fill="white" stroke="#B8B8B8" stroke-width="0.5"/>
<circle cx="32" cy="27" r="2.75" fill="white" stroke="#B8B8B8" stroke-width="0.5"/>
<circle cx="16" cy="27" r="2.75" fill="white" stroke="#B8B8B8" stroke-width="0.5"/>
</svg>
