<svg width="48" height="48" viewBox="0 0 48 48" fill="none" xmlns="http://www.w3.org/2000/svg">
<path d="M35.6879 22.6417C37.7635 23.4225 40.0515 23.4251 42.1292 22.6498C42.8265 22.3895 43.5248 22.1299 44.2221 21.8696C44.7456 21.6744 45.3199 21.7096 45.8189 21.9681C46.3182 22.2268 46.7014 22.6881 46.8838 23.2494C47.0659 23.8104 47.033 24.4259 46.7919 24.9607C46.5505 25.4958 46.12 25.9065 45.5963 26.102C44.8991 26.3622 44.2016 26.623 43.5044 26.8832C40.5365 27.9908 37.2683 27.9883 34.3029 26.874C32.979 26.3765 31.6553 25.8787 30.3316 25.3807C26.2494 23.845 21.7486 23.845 17.6664 25.381C16.3434 25.8788 15.0203 26.3765 13.6971 26.8739C10.7317 27.9884 7.46355 27.9908 4.49561 26.8832C3.79838 26.623 3.10089 26.3622 2.40367 26.102C1.87996 25.9065 1.44949 25.4958 1.20812 24.9607C0.96699 24.4259 0.934081 23.8104 1.11624 23.2494C1.2986 22.6881 1.68183 22.2268 2.1811 21.9681C2.68014 21.7096 3.25442 21.6744 3.77788 21.8696C4.47524 22.1299 5.17348 22.3895 5.87084 22.6498C7.9479 23.4249 10.2352 23.4226 12.3102 22.6421C14.1024 21.968 15.8945 21.2937 17.6868 20.6199C21.7567 19.0898 26.2433 19.0898 30.3132 20.62C32.1048 21.2936 33.8963 21.9678 35.6879 22.6417Z" fill="white" stroke="#B8B8B8" stroke-width="0.5" stroke-linecap="round"/>
<path d="M35.6879 25.3583C37.7635 24.5775 40.0515 24.5749 42.1292 25.3502C42.8265 25.6105 43.5248 25.8701 44.2221 26.1304C44.7456 26.3256 45.3199 26.2904 45.8189 26.0319C46.3182 25.7732 46.7014 25.3119 46.8838 24.7506C47.0659 24.1896 47.033 23.5741 46.7919 23.0393C46.5505 22.5042 46.12 22.0935 45.5963 21.898C44.8991 21.6378 44.2016 21.377 43.5044 21.1168C40.5365 20.0092 37.2683 20.0117 34.3029 21.126C32.979 21.6235 31.6553 22.1213 30.3316 22.6193C26.2494 24.155 21.7486 24.155 17.6664 22.619C16.3434 22.1212 15.0203 21.6235 13.6971 21.1261C10.7317 20.0116 7.46355 20.0092 4.49561 21.1168C3.79838 21.377 3.10089 21.6378 2.40367 21.898C1.87996 22.0935 1.44949 22.5042 1.20812 23.0393C0.96699 23.5741 0.934081 24.1896 1.11624 24.7506C1.2986 25.3119 1.68183 25.7732 2.1811 26.0319C2.68014 26.2904 3.25442 26.3256 3.77788 26.1304C4.47524 25.8701 5.17348 25.6105 5.87084 25.3502C7.9479 24.5751 10.2352 24.5774 12.3102 25.3579C14.1024 26.032 15.8945 26.7063 17.6868 27.3801C21.7567 28.9102 26.2433 28.9102 30.3132 27.38C32.1048 26.7064 33.8963 26.0322 35.6879 25.3583Z" fill="white" stroke="#B8B8B8" stroke-width="0.5" stroke-linecap="round"/>
</svg>
