<svg width="48" height="48" viewBox="0 0 48 48" fill="none" xmlns="http://www.w3.org/2000/svg">
<path d="M8.13349 22.0087C11.0252 20.4022 14.5553 20.4602 17.3918 22.1621L20.681 24.1365C22.7237 25.3619 25.2757 25.3619 27.3185 24.1365L30.6076 22.1621C33.4442 20.4602 36.9743 20.4022 39.866 22.0087L45.9984 25.4151C46.6752 25.7914 46.919 26.6457 46.5429 27.3227C46.1667 27.9995 45.3124 28.2433 44.6354 27.8672L38.503 24.4597C36.4877 23.3404 34.0285 23.3822 32.0517 24.5682L28.7615 26.5415C25.8304 28.2999 22.169 28.2999 19.238 26.5415L15.9477 24.5682C13.9709 23.3822 11.5117 23.3404 9.49649 24.4597L3.36408 27.8672C2.6871 28.2433 1.83277 27.9995 1.45654 27.3227C1.08044 26.6457 1.32422 25.7914 2.00108 25.4151L8.13349 22.0087Z" fill="white" stroke="#B8B8B8" stroke-width="0.5" stroke-linecap="round"/>
<circle cx="12.7806" cy="26.0801" r="1.93293" fill="white" stroke="#B8B8B8" stroke-width="0.5"/>
<circle cx="35.7806" cy="26.0801" r="1.93293" fill="white" stroke="#B8B8B8" stroke-width="0.5"/>
<circle cx="23.9998" cy="22.7142" r="1.93293" fill="white" stroke="#B8B8B8" stroke-width="0.5"/>
<circle cx="2.68293" cy="22.7142" r="1.93293" fill="white" stroke="#B8B8B8" stroke-width="0.5"/>
<circle cx="45.3172" cy="22.7142" r="1.93293" fill="white" stroke="#B8B8B8" stroke-width="0.5"/>
</svg>
