<svg width="48" height="48" viewBox="0 0 48 48" fill="none" xmlns="http://www.w3.org/2000/svg">
<path d="M16.9209 44.2891C18.2577 44.2891 19.3414 42.7577 19.3414 40.8688C19.3414 38.9798 18.2577 37.4485 16.9209 37.4485C15.5842 37.4485 14.5005 38.9798 14.5005 40.8688C14.5005 42.7577 15.5842 44.2891 16.9209 44.2891Z" stroke="#B8B8B8" stroke-width="0.3" stroke-miterlimit="10"/>
<path d="M16.9212 38.9509L17.869 39.506L18.2615 40.8453L17.869 42.185L16.9212 42.7397L15.9731 42.185L15.5806 40.8453L15.9731 39.506L16.9212 38.9509Z" stroke="#B8B8B8" stroke-width="0.3" stroke-miterlimit="10"/>
<path d="M18.6301 41.8374V43.2863H17.6431" stroke="#B8B8B8" stroke-width="0.3" stroke-miterlimit="10" stroke-linejoin="bevel"/>
<path d="M17.6157 38.4497H18.6299V39.8432" stroke="#B8B8B8" stroke-width="0.3" stroke-miterlimit="10" stroke-linejoin="bevel"/>
<path d="M15.208 39.8831V38.4497H16.1979" stroke="#B8B8B8" stroke-width="0.3" stroke-miterlimit="10" stroke-linejoin="bevel"/>
<path d="M16.2331 43.2859H15.208V41.8838" stroke="#B8B8B8" stroke-width="0.3" stroke-miterlimit="10" stroke-linejoin="bevel"/>
<path d="M17.869 44.0165L17.6435 43.2842L16.9212 44.2888L16.2267 43.2897L15.9731 44.0165" stroke="#B8B8B8" stroke-width="0.3" stroke-miterlimit="10" stroke-linejoin="bevel"/>
<path d="M15.9731 37.7207L16.1987 38.4531L16.9212 37.4485L17.6154 38.4472L17.869 37.7207" stroke="#B8B8B8" stroke-width="0.3" stroke-miterlimit="10" stroke-linejoin="bevel"/>
<path d="M14.6934 42.2063L15.2114 41.8877L14.5005 40.8667L15.2075 39.8856L14.6932 39.5273" stroke="#B8B8B8" stroke-width="0.3" stroke-miterlimit="10" stroke-linejoin="bevel"/>
<path d="M19.1486 39.5273L18.6304 39.846L19.3413 40.8667L18.6345 41.8481L19.1486 42.2063" stroke="#B8B8B8" stroke-width="0.3" stroke-miterlimit="10" stroke-linejoin="bevel"/>
<path d="M16.1982 38.4529L15.9727 39.5061L15.207 39.8857L15.5801 40.8454L15.211 41.8877L15.9727 42.185L16.2262 43.2899L16.9207 42.7398L17.643 43.2843L17.8685 42.185L18.6348 41.8481L18.2611 40.8454L18.6307 39.8461L17.8685 39.5061L17.615 38.447L16.9207 38.951L16.1982 38.4529Z" stroke="#B8B8B8" stroke-width="0.3" stroke-miterlimit="10"/>
<path d="M23.9198 44.2891C25.8088 44.2891 27.3401 42.7577 27.3401 40.8688C27.3401 38.9798 25.8088 37.4485 23.9198 37.4485C22.0308 37.4485 20.4995 38.9798 20.4995 40.8688C20.4995 42.7577 22.0308 44.2891 23.9198 44.2891Z" stroke="#B8B8B8" stroke-width="0.3" stroke-miterlimit="10"/>
<path d="M23.9208 38.9509L25.2601 39.506L25.8148 40.8453L25.2601 42.185L23.9208 42.7397L22.5811 42.185L22.0264 40.8453L22.5811 39.506L23.9208 38.9509Z" stroke="#B8B8B8" stroke-width="0.3" stroke-miterlimit="10"/>
<path d="M26.3361 41.8374V43.2863H24.9414" stroke="#B8B8B8" stroke-width="0.3" stroke-miterlimit="10" stroke-linejoin="bevel"/>
<path d="M24.9043 38.4497H26.3374V39.8432" stroke="#B8B8B8" stroke-width="0.3" stroke-miterlimit="10" stroke-linejoin="bevel"/>
<path d="M21.501 39.8831V38.4497H22.8997" stroke="#B8B8B8" stroke-width="0.3" stroke-miterlimit="10" stroke-linejoin="bevel"/>
<path d="M22.9495 43.2859H21.501V41.8838" stroke="#B8B8B8" stroke-width="0.3" stroke-miterlimit="10" stroke-linejoin="bevel"/>
<path d="M25.26 44.0165L24.9414 43.2842L23.9207 44.2888L22.9393 43.2897L22.5811 44.0165" stroke="#B8B8B8" stroke-width="0.3" stroke-miterlimit="10" stroke-linejoin="bevel"/>
<path d="M22.5811 37.7207L22.8997 38.4531L23.9207 37.4485L24.9018 38.4472L25.26 37.7207" stroke="#B8B8B8" stroke-width="0.3" stroke-miterlimit="10" stroke-linejoin="bevel"/>
<path d="M20.7721 42.2063L21.5041 41.8877L20.4995 40.8667L21.4985 39.8856L20.7718 39.5273" stroke="#B8B8B8" stroke-width="0.3" stroke-miterlimit="10" stroke-linejoin="bevel"/>
<path d="M27.0692 39.5273L26.3369 39.846L27.3415 40.8667L26.3428 41.8481L27.0692 42.2063" stroke="#B8B8B8" stroke-width="0.3" stroke-miterlimit="10" stroke-linejoin="bevel"/>
<path d="M22.9001 38.4529L22.5814 39.5061L21.4995 39.8857L22.0267 40.8454L21.5051 41.8877L22.5814 42.185L22.9397 43.2899L23.9211 42.7398L24.9418 43.2843L25.2604 42.185L26.3433 41.8481L25.8152 40.8454L26.3374 39.8461L25.2604 39.5061L24.9022 38.447L23.9211 38.951L22.9001 38.4529Z" stroke="#B8B8B8" stroke-width="0.3" stroke-miterlimit="10"/>
<path d="M30.9992 44.2891C32.3798 44.2891 33.4989 42.7577 33.4989 40.8688C33.4989 38.9798 32.3798 37.4485 30.9992 37.4485C29.6187 37.4485 28.4995 38.9798 28.4995 40.8688C28.4995 42.7577 29.6187 44.2891 30.9992 44.2891Z" stroke="#B8B8B8" stroke-width="0.3" stroke-miterlimit="10"/>
<path d="M30.9997 38.9509L31.9786 39.506L32.384 40.8453L31.9786 42.185L30.9997 42.7397L30.0207 42.185L29.6152 40.8453L30.0207 39.506L30.9997 38.9509Z" stroke="#B8B8B8" stroke-width="0.3" stroke-miterlimit="10"/>
<path d="M32.7664 41.8374V43.2863H31.7471" stroke="#B8B8B8" stroke-width="0.3" stroke-miterlimit="10" stroke-linejoin="bevel"/>
<path d="M31.7188 38.4497H32.7661V39.8432" stroke="#B8B8B8" stroke-width="0.3" stroke-miterlimit="10" stroke-linejoin="bevel"/>
<path d="M29.2314 39.8831V38.4497H30.2537" stroke="#B8B8B8" stroke-width="0.3" stroke-miterlimit="10" stroke-linejoin="bevel"/>
<path d="M30.2901 43.2859H29.2314V41.8838" stroke="#B8B8B8" stroke-width="0.3" stroke-miterlimit="10" stroke-linejoin="bevel"/>
<path d="M31.9794 44.0165L31.7465 43.2842L31.0006 44.2888L30.2833 43.2897L30.0215 44.0165" stroke="#B8B8B8" stroke-width="0.3" stroke-miterlimit="10" stroke-linejoin="bevel"/>
<path d="M30.0215 37.7207L30.2544 38.4531L31.0006 37.4485L31.7176 38.4472L31.9794 37.7207" stroke="#B8B8B8" stroke-width="0.3" stroke-miterlimit="10" stroke-linejoin="bevel"/>
<path d="M28.6987 42.2063L29.2337 41.8877L28.4995 40.8667L29.2296 39.8856L28.6985 39.5273" stroke="#B8B8B8" stroke-width="0.3" stroke-miterlimit="10" stroke-linejoin="bevel"/>
<path d="M33.3003 39.5273L32.7651 39.846L33.4993 40.8667L32.7694 41.8481L33.3003 42.2063" stroke="#B8B8B8" stroke-width="0.3" stroke-miterlimit="10" stroke-linejoin="bevel"/>
<path d="M30.2541 38.4529L30.0212 39.5061L29.2305 39.8857L29.6158 40.8454L29.2345 41.8877L30.0212 42.185L30.283 43.2899L31.0003 42.7398L31.7462 43.2843L31.9791 42.185L32.7705 41.8481L32.3845 40.8454L32.7662 39.8461L31.9791 39.5061L31.7173 38.447L31.0003 38.951L30.2541 38.4529Z" stroke="#B8B8B8" stroke-width="0.3" stroke-miterlimit="10"/>
<circle cx="19.0005" cy="37.9482" r="0.85" fill="white" stroke="#B8B8B8" stroke-width="0.3"/>
<circle cx="21.0005" cy="37.9482" r="0.85" fill="white" stroke="#B8B8B8" stroke-width="0.3"/>
<circle cx="19.0005" cy="43.9482" r="0.85" fill="white" stroke="#B8B8B8" stroke-width="0.3"/>
<circle cx="21.0005" cy="43.9482" r="0.85" fill="white" stroke="#B8B8B8" stroke-width="0.3"/>
<circle cx="27" cy="43.9482" r="0.85" fill="white" stroke="#B8B8B8" stroke-width="0.3"/>
<circle cx="29" cy="43.9482" r="0.85" fill="white" stroke="#B8B8B8" stroke-width="0.3"/>
<circle cx="29" cy="37.9482" r="0.85" fill="white" stroke="#B8B8B8" stroke-width="0.3"/>
<circle cx="27" cy="37.9482" r="0.85" fill="white" stroke="#B8B8B8" stroke-width="0.3"/>
<rect x="14.25" y="37.1982" width="19.5" height="7.5" rx="2.75" stroke="#B8B8B8" stroke-width="0.5"/>
<path d="M40.1558 26.8599L6.84541 26.8599" stroke="#B8B8B8" stroke-width="0.5" stroke-miterlimit="10" stroke-linejoin="bevel"/>
<path d="M6.84541 14.1384L40.1558 14.1384" stroke="#B8B8B8" stroke-width="0.5" stroke-miterlimit="10" stroke-linejoin="bevel"/>
<path d="M4.00029 20.5C4.00029 27.2602 12.7307 32.7404 23.5001 32.7404C34.2696 32.7404 43 27.2602 43 20.5C43 13.7398 34.2696 8.25952 23.5001 8.25952C12.7307 8.25952 4.00029 13.7398 4.00029 20.5Z" stroke="#B8B8B8" stroke-width="0.5" stroke-miterlimit="10" stroke-linejoin="bevel"/>
<path d="M23.5005 8.25952L23.5005 10.4677" stroke="#B8B8B8" stroke-width="0.5" stroke-miterlimit="10" stroke-linejoin="bevel"/>
<path d="M40.1635 14.1384L37.8884 20.5002L43 20.5002" stroke="#B8B8B8" stroke-width="0.5" stroke-miterlimit="10" stroke-linejoin="bevel"/>
<path d="M40.1558 26.8699L37.8888 20.5L34.0943 22.5809L34.0943 18.4175L37.8888 20.5" stroke="#B8B8B8" stroke-width="0.5" stroke-miterlimit="10" stroke-linejoin="bevel"/>
<path d="M23.5 32.7409L23.5 30.5311L29.9255 32.0603L33.4703 26.8606L34.0938 22.5813L28.0976 26.8606L23.5 30.5311L17.0763 32.0603L13.5298 26.8606L12.3237 30.5311" stroke="#B8B8B8" stroke-width="0.5" stroke-miterlimit="10" stroke-linejoin="bevel"/>
<path d="M23.5005 30.5306L18.903 26.8601L12.9068 22.5809L9.11224 20.5L4.00064 20.5" stroke="#B8B8B8" stroke-width="0.5" stroke-miterlimit="10" stroke-linejoin="bevel"/>
<path d="M12.3242 10.4675L13.5303 14.138L12.9068 18.4173L9.11228 20.4998L6.84536 14.1299" stroke="#B8B8B8" stroke-width="0.5" stroke-miterlimit="10" stroke-linejoin="bevel"/>
<path d="M33.4707 14.1383L29.8655 8.9353L23.5004 10.4678L17.0832 8.9353L13.5302 14.1383" stroke="#B8B8B8" stroke-width="0.5" stroke-miterlimit="10" stroke-linejoin="bevel"/>
<path d="M9.1123 20.5L6.84538 26.8699" stroke="#B8B8B8" stroke-width="0.5" stroke-miterlimit="10" stroke-linejoin="bevel"/>
<path d="M33.4707 26.8599L34.6768 30.5304" stroke="#B8B8B8" stroke-width="0.5" stroke-miterlimit="10" stroke-linejoin="bevel"/>
<path d="M13.5302 26.8599L12.9067 22.5807L12.9067 18.4173L18.8539 14.138L23.5004 10.4675L28.0979 14.138L34.0941 18.4173L33.4707 14.138L34.6768 10.4675" stroke="#B8B8B8" stroke-width="0.5" stroke-miterlimit="10" stroke-linejoin="bevel"/>
<rect x="38.7759" y="26.5481" width="7.23081" height="7.23081" rx="3.61541" transform="rotate(90 38.7759 26.5481)" fill="white" stroke="#B8B8B8" stroke-width="0.5"/>
<rect x="15.5835" y="26.5481" width="7.23081" height="7.23081" rx="3.61541" transform="rotate(90 15.5835 26.5481)" fill="white" stroke="#B8B8B8" stroke-width="0.5"/>
<rect x="38.7759" y="7.22119" width="7.23081" height="7.23081" rx="3.61541" transform="rotate(90 38.7759 7.22119)" fill="white" stroke="#B8B8B8" stroke-width="0.5"/>
<rect x="15.5835" y="7.22119" width="7.23081" height="7.23081" rx="3.61541" transform="rotate(90 15.5835 7.22119)" fill="white" stroke="#B8B8B8" stroke-width="0.5"/>
</svg>
